<svg xmlns="http://www.w3.org/2000/svg" width="18.313" height="17.75" viewBox="0 0 18.313 17.75">
  <defs>
    <style>
      .cls-1 {
        fill: #b3aaaa;
        fill-rule: evenodd;
      }
    </style>
  </defs>
  <path id="add_favorite.svg" class="cls-1" d="M107.784,231.411l-0.66.747c-0.05-.043-9.77-8.539-9.212-13.884a3.729,3.729,0,0,1,2.08-2.949,5.645,5.645,0,0,1,7.046.664,5.672,5.672,0,0,1,7.058-.664,3.76,3.76,0,0,1,2.093,2.967c0.574,5.356-9.072,13.859-9.072,13.859l-0.664-.745c2.577-2.269,9.169-9.032,8.741-13.008a2.76,2.76,0,0,0-1.589-2.2c-3.49-1.954-5.73.374-5.819,0.471l-0.737.8-0.741-.795c-0.1-.1-2.335-2.429-5.826-0.475a2.733,2.733,0,0,0-1.575,2.184c-0.416,3.969,6.262,10.748,8.868,13.026l0.009,0.007" transform="translate(-97.906 -214.406)"/>
</svg>
