<svg xmlns="http://www.w3.org/2000/svg" width="22.969" height="28.063" viewBox="0 0 22.969 28.063">
  <defs>
    <style>
      .cls-1 {
        fill: #244ea8;
        fill-rule: evenodd;
      }
    </style>
  </defs>
  <path id="address.svg" class="cls-1" d="M291.793,154.344a2.773,2.773,0,1,0,2.744,2.772A2.757,2.757,0,0,0,291.793,154.344Zm0,19.876s-11.5-13.657-11.5-16.474a11.5,11.5,0,1,1,22.991,0C303.289,160.563,291.793,174.22,291.793,174.22Zm0-21.379a4.274,4.274,0,1,1-4.244,4.275,4.264,4.264,0,0,1,4.244-4.275m0,19.034c4.883-5.916,9.834-12.645,10-14.129a10,10,0,1,0-19.993-.03c0.166,1.512,5.116,8.243,10,14.159" transform="translate(-280.312 -146.156)"/>
</svg>
