<svg xmlns="http://www.w3.org/2000/svg" width="32.125" height="30.376" viewBox="0 0 32.125 30.376">
  <defs>
    <style>
      .cls-1 {
        fill-rule: evenodd;
      }
    </style>
  </defs>
  <path id="antenna.svg" class="cls-1" d="M584.1,227.357l-0.649-.379a14.284,14.284,0,0,0-1.925,7.176,14.68,14.68,0,0,0,14.8,14.54,14.921,14.921,0,0,0,7.607-2.067,0.754,0.754,0,0,0,.133-1.2c-0.009-.009-4.859-4.585-9.718-9.2-2.429-2.307-4.861-4.626-6.683-6.384-0.91-.876-1.668-1.614-2.2-2.139-0.265-.261-0.65-0.676-0.784-0.817l-0.077.454,0.244-.01,0.013-.238-0.257.248,0.244-.01a0.749,0.749,0,0,0-1.4-.349l0.649,0.379-0.751.03c0.513,1.407,19.561,18.849,19.687,19.14l0.513-.55-0.379-.649a13.423,13.423,0,0,1-6.848,1.86,13.178,13.178,0,0,1-13.3-13.034,12.754,12.754,0,0,1,1.722-6.42l-0.648-.377-0.751.03Zm10.457,9.811,3.618-3.552a0.755,0.755,0,0,0,.011-1.065,0.746,0.746,0,0,0-1.06-.011l-3.618,3.549a0.755,0.755,0,0,0-.011,1.065,0.746,0.746,0,0,0,1.06.014m4.1-6.582v0.752a0.723,0.723,0,1,1-.75.722,0.742,0.742,0,0,1,.75-0.722v-1.506a2.229,2.229,0,1,0,2.249,2.228,2.245,2.245,0,0,0-2.249-2.228v0.754Zm2.222-3.318a3.715,3.715,0,0,1,2.563,1.1,3.758,3.758,0,0,1,1.1,2.646l-0.009.234a0.75,0.75,0,1,0,1.5.091c0.007-.107.01-0.216,0.01-0.325a5.255,5.255,0,0,0-1.537-3.711,5.194,5.194,0,0,0-3.6-1.544A0.753,0.753,0,0,0,600.873,227.268Zm-1.677-3.14a6.908,6.908,0,0,1,1.543-.175,7.126,7.126,0,0,1,7.047,7.926,0.75,0.75,0,1,0,1.49.172,8.285,8.285,0,0,0,.056-0.969,8.637,8.637,0,0,0-2.527-6.1,8.538,8.538,0,0,0-6.066-2.537,8.42,8.42,0,0,0-1.877.211A0.754,0.754,0,0,0,599.2,224.128Zm-1.654-4.032a11.783,11.783,0,0,1,2.508-.279,12.078,12.078,0,0,1,12.121,12.1,12.313,12.313,0,0,1-.127,1.758,0.749,0.749,0,1,0,1.483.218,13.752,13.752,0,0,0,.142-1.976,13.575,13.575,0,0,0-13.619-13.611,13.123,13.123,0,0,0-2.829.314A0.753,0.753,0,0,0,597.542,220.1Z" transform="translate(-581.531 -218.312)"/>
</svg>
