<svg xmlns="http://www.w3.org/2000/svg" width="16.25" height="21.031" viewBox="0 0 16.25 21.031">
  <defs>
    <style>
      .cls-1 {
        fill-rule: evenodd;
      }
    </style>
  </defs>
  <path id="basket.svg" class="cls-1" d="M231.273,173.972H218.484a1.712,1.712,0,0,1-1.729-2.2l1.2-10.192a1.711,1.711,0,0,1,1.727-1.7h10.391a1.713,1.713,0,0,1,1.729,1.7l1.2,11.192A1.712,1.712,0,0,1,231.273,173.972Zm-0.312-1.963-1.141-10.656h-9.883l-1.144,10.656h12.168m-8.833-12.135h-2V157.13c0-2.316,2.313-4.194,4.67-4.194s4.673,1.878,4.673,4.194v2.744h-2V157.13a2.715,2.715,0,0,0-5.343,0v2.744" transform="translate(-216.75 -152.938)"/>
</svg>
