<svg xmlns="http://www.w3.org/2000/svg" width="40.688" height="25.469" viewBox="0 0 40.688 25.469">
  <defs>
    <style>
      .cls-1 {
        fill-rule: evenodd;
      }
    </style>
  </defs>
  <path id="box.svg" class="cls-1" d="M894.539,229.769v0.754h25.308v11.993a2.26,2.26,0,0,1-2.251,2.26H897.538a2.258,2.258,0,0,1-2.248-2.26V229.769h-0.751v0h-0.748v12.747a3.758,3.758,0,0,0,3.747,3.768H917.6a3.759,3.759,0,0,0,3.749-3.768V229.769l-0.75-.752H894.539l-0.748.752h0.748Zm9.413,7.971,3.2,2.612,1.049-.1,4.8-5.746a0.753,0.753,0,0,0-.093-1.06,0.744,0.744,0,0,0-1.055.093l-4.326,5.176-2.626-2.144a0.745,0.745,0,0,0-1.053.109A0.754,0.754,0,0,0,903.952,237.74Zm17.454-7.658,6.4-8.035a0.758,0.758,0,0,0-.117-1.06,0.748,0.748,0,0,0-1.054.118l-6.4,8.037a0.753,0.753,0,0,0,.118,1.058,0.744,0.744,0,0,0,1.053-.118m-26.392-.94-6.4-8.037a0.748,0.748,0,0,0-1.054-.118,0.758,0.758,0,0,0-.117,1.06l6.4,8.035a0.746,0.746,0,0,0,1.055.118,0.756,0.756,0,0,0,.118-1.058" transform="translate(-887.281 -220.812)"/>
</svg>
