<svg xmlns="http://www.w3.org/2000/svg" width="31.625" height="27.75" viewBox="0 0 31.625 27.75">
  <defs>
    <style>
      .cls-1 {
        fill-rule: evenodd;
      }
    </style>
  </defs>
  <path id="camera.svg" class="cls-1" d="M828.6,221.1l-0.2.727,19.31,5.232-5.246,8.966-16.626-4.508a5.01,5.01,0,0,1-3.677-4.842,5.1,5.1,0,0,1,.171-1.3,4.924,4.924,0,0,1,6.068-3.547l0.2-.727,0.194-.729a6.519,6.519,0,0,0-3.343,12.6l17.181,4.656,0.841-.346,6.032-10.312a0.752,0.752,0,0,0-.45-1.109l-20.261-5.491Zm18,9.877,3.123,0.845,0.2-.727L849.2,230.9l-1,3.772,0.725,0.193,0.195-.727s-2-.545-4.179-1.133a0.754,0.754,0,0,0-.391,1.456l4.179,1.131,0.919-.534,1-3.77-0.528-.922s-1.4-.377-3.124-0.845A0.754,0.754,0,0,0,846.6,230.975Zm-26.659,13.042h6.376a5.817,5.817,0,0,0,5.783-5.845v-4.336a0.749,0.749,0,1,0-1.5,0v4.336a4.316,4.316,0,0,1-4.285,4.338h-6.376A0.754,0.754,0,0,0,819.941,244.017Zm-0.917-5.5v8.655a0.75,0.75,0,1,0,1.5,0v-8.655a0.75,0.75,0,1,0-1.5,0" transform="translate(-819.031 -220.156)"/>
</svg>
