<svg xmlns="http://www.w3.org/2000/svg" width="48.531" height="43.781" viewBox="0 0 48.531 43.781">
  <defs>
    <style>
      .cls-1 {
        fill-rule: evenodd;
      }
    </style>
  </defs>
  <path id="like.svg" class="cls-1" d="M597.613,154.544l0.012,0a28.189,28.189,0,0,0,4.625.349c5.531,0,14.845-1.424,19.1-10.354,3.956-8.341.741-9.08,5.41-9.034,1.16,0,1.632,1.391,1.652,3.483a20.014,20.014,0,0,1-.384,3.627l-0.018.161v2h0.751l-0.661-.358a8.928,8.928,0,0,0-1.04,3.561,2.557,2.557,0,0,0,2.7,2.563h10l0.088,0,0.2-.009c0.787,0.09,2.783.068,2.964,3.3v0.016c0.2,0.478-1.786,1.621-1.786,1.627l0.3,0.687,0.012-.752-7.773-.1-0.009.753,0.04,0.75s0.285-.016.773-0.016c2.246,0,7.389.633,7.4,3.021,0.129,1.524-2.216,2.115-2.218,2.12l0.149,0.736-0.018-.75-6.141.154,0.019,0.753,0.076,0.748s0.477-.05,1.219-0.05c2.293,0,5.948.557,5.955,3.311,0.023,2.108-3.018,2.264-3.045,2.267l0.009,0.752v-0.752l-5.214-.012v0.753l0.021,0.752,0.131,0c1.058,0,6.093.4,6.1,3.262-0.09,2.3-1.042,2.3-2.046,2.413a4.4,4.4,0,0,1-.988-0.127l-0.214-.031h-20c-2.832.167-4.89-3.849-9-4.01h-10a0.752,0.752,0,0,0,0,1.5h10c2.932-.161,4.963,3.842,9,4.009h20v-0.75l-0.218.719a5.264,5.264,0,0,0,1.42.192,3.55,3.55,0,0,0,3.548-3.918c-0.267-4.83-6.62-4.7-7.6-4.765l-0.174,0a0.751,0.751,0,0,0,.02,1.5l5.214,0.012h0.011c0-.019,4.359.065,4.526-3.772-0.154-4.454-5.218-4.809-7.454-4.816-0.809,0-1.354.056-1.372,0.059a0.751,0.751,0,0,0,.1,1.5l6.142-.154,0.129-.016c0.012-.032,3.292-0.549,3.421-3.593-0.339-4.514-6.726-4.424-8.9-4.524-0.522,0-.843.016-0.854,0.016a0.752,0.752,0,0,0,.029,1.5l7.773,0.1,0.317-.065c0.011-.1,2.471-0.855,2.674-3l0-.075v0c-0.12-4.189-3.461-4.78-4.463-4.744a3.074,3.074,0,0,0-.375.018l0.088,0.746v-0.753h-10c-1.183-.1-1.085-0.3-1.2-1.058a8.15,8.15,0,0,1,.862-2.845l0.09-.358v-2h-0.75l0.732,0.158a20.954,20.954,0,0,0,.418-3.946c0-2.062-.438-4.884-3.151-4.986-5.858.045-3.344,2.7-6.765,9.889-3.834,8.119-12.4,9.49-17.748,9.5a27.2,27.2,0,0,1-4.354-.324l-0.009,0A0.753,0.753,0,0,0,597.613,154.544Z" transform="translate(-596 -134)"/>
</svg>
