<svg id="logo.svg" xmlns="http://www.w3.org/2000/svg" width="114.937" height="31.969" viewBox="0 0 114.937 31.969">
  <defs>
    <style>
      .cls-1, .cls-2 {
        fill-rule: evenodd;
      }

      .cls-2 {
        fill: #244ea8;
      }
    </style>
  </defs>
  <path class="cls-1" d="M144.106,44.41V43.655a2.575,2.575,0,0,1,.661-1.863A2.425,2.425,0,0,1,146.6,41.1h2.689a2.454,2.454,0,0,1,1.822.677,2.542,2.542,0,0,1,.672,1.874V44.41a2.574,2.574,0,0,1-.661,1.863,2.423,2.423,0,0,1-1.833.688H146.6a2.43,2.43,0,0,1-1.822-.688A2.55,2.55,0,0,1,144.106,44.41Zm0.086,26.913V50.845a1.262,1.262,0,0,1,.38-0.949,1.3,1.3,0,0,1,.943-0.367h4.859a1.275,1.275,0,0,1,.954.378,1.289,1.289,0,0,1,.368.938V71.323a1.262,1.262,0,0,1-.379.95,1.3,1.3,0,0,1-.943.367h-4.859a1.294,1.294,0,0,1-.954-0.367A1.281,1.281,0,0,1,144.192,71.323Zm19.314,1.75q-9.326.021-9.326-9.76V42.883a1.308,1.308,0,0,1,.38-0.965,1.281,1.281,0,0,1,.943-0.38h4.859a1.274,1.274,0,0,1,.954.379,1.323,1.323,0,0,1,.369.963v7.225h6.051a1.267,1.267,0,0,1,1.323,1.328v2.592a1.28,1.28,0,0,1-.38.958,1.3,1.3,0,0,1-.943.37h-6.051v8.055a5.168,5.168,0,0,0,1.041,3.457,3.467,3.467,0,0,0,2.776,1.218,12.428,12.428,0,0,0,1.561-.13,12.124,12.124,0,0,1,1.41-.13h0.8a1.35,1.35,0,0,1,.965.359,1.221,1.221,0,0,1,.379.927v2.256a1.126,1.126,0,0,1-.379.843,1.724,1.724,0,0,1-.965.443,31.943,31.943,0,0,1-5.77.422h0Zm33.151-1.757V42.883a1.308,1.308,0,0,1,.379-0.965,1.283,1.283,0,0,1,.944-0.38h4.858a1.273,1.273,0,0,1,.954.38,1.328,1.328,0,0,1,.369.965V71.316a1.275,1.275,0,0,1-.379.954,1.3,1.3,0,0,1-.944.369H197.98A1.264,1.264,0,0,1,196.657,71.316Zm19.9,1.757a12.7,12.7,0,0,1-7.406-2,6.465,6.465,0,0,1-2.874-5.639,6.358,6.358,0,0,1,2.874-5.6,12.919,12.919,0,0,1,7.406-1.952h7.179a4.732,4.732,0,0,0-1.065-3.535,4.81,4.81,0,0,0-3.369-1q-3.021,0-4.239,1.475a3.037,3.037,0,0,1-2.489,1.149h-3.225a1.3,1.3,0,0,1-.963-0.38A1.28,1.28,0,0,1,208,54.66q0-6.224,11.817-6.224a13.63,13.63,0,0,1,8.291,2.31q3.125,2.31,3.125,7.146V71.316a1.263,1.263,0,0,1-1.323,1.323h-4.186a1.271,1.271,0,0,1-.954-0.38,1.3,1.3,0,0,1-.369-0.943V70.643a13.038,13.038,0,0,1-7.851,2.429h0Zm-2.776-7.634a2.422,2.422,0,0,0,.913,1.952,3.938,3.938,0,0,0,2.586.759,11.972,11.972,0,0,0,6.456-1.952V62.814h-6.673a3.627,3.627,0,0,0-2.4.737A2.351,2.351,0,0,0,213.777,65.438Zm20.071-22.556a1.307,1.307,0,0,1,.38-0.965,1.281,1.281,0,0,1,.943-0.38h4.858a1.274,1.274,0,0,1,.955.38,1.331,1.331,0,0,1,.368.965v6.658a21.168,21.168,0,0,1,6.268-1.106,11.071,11.071,0,0,1,8.322,3.175q3.086,3.175,3.086,9.155,0,12.308-13.555,12.308a31.748,31.748,0,0,1-6.517-.707,17.414,17.414,0,0,1-5.108-1.732V42.883Zm12.211,10.8a15.538,15.538,0,0,0-4.707.866V67.326a18,18,0,0,0,4.577.5q3.057,0,4.326-1.667t1.269-5.392q0-3.724-1.247-5.4t-4.218-1.678h0Z" transform="translate(-144.094 -41.094)"/>
  <path id="Shape_1_copy" data-name="Shape 1 copy" class="cls-2" d="M182.973,66.595a7.907,7.907,0,0,1-4.189-14.617v5.385l5.6-6.461A7.91,7.91,0,0,1,182.973,66.595Z" transform="translate(-144.094 -41.094)"/>
</svg>
