<svg xmlns="http://www.w3.org/2000/svg" width="26.657" height="16.813" viewBox="0 0 26.657 16.813">
  <defs>
    <style>
      .cls-1 {
        fill: #244ea8;
        fill-rule: evenodd;
      }
    </style>
  </defs>
  <path id="mail.svg" class="cls-1" d="M370.267,152.031v-0.752a2.241,2.241,0,0,0-2.227,2.25v12.326a2.238,2.238,0,0,0,2.227,2.25h22.195a2.239,2.239,0,0,0,2.226-2.25V153.529a2.241,2.241,0,0,0-2.226-2.25H370.267v1.5h22.195a0.738,0.738,0,0,1,.724.749v12.326a0.736,0.736,0,0,1-.724.749H370.267a0.737,0.737,0,0,1-.726-0.749V153.529a0.739,0.739,0,0,1,.726-0.749v-0.749Zm-1.879,1.729,0.007,0.007c0.149,0.024,9.254,8.175,12.85,8.358,3.58-.174,13.031-8.266,13.176-8.288a0.751,0.751,0,0,0-.952-1.161c-0.012.067-10.134,8.125-12.224,7.949-2.074.183-11.846-8.008-11.873-8l-0.007-.007A0.75,0.75,0,0,0,368.388,153.76Zm1.3,13.427,7.3-7.521a0.751,0.751,0,1,0-1.077-1.046l-7.3,7.521a0.75,0.75,0,1,0,1.076,1.046M394.13,165.9l-7.093-7.577a0.75,0.75,0,1,0-1.094,1.027l7.092,7.576a0.75,0.75,0,1,0,1.095-1.026" transform="translate(-368.031 -151.281)"/>
</svg>
