<svg xmlns="http://www.w3.org/2000/svg" width="52.344" height="53.812" viewBox="0 0 52.344 53.812">
  <defs>
    <style>
      .cls-1 {
        fill-rule: evenodd;
      }
    </style>
  </defs>
  <path id="moldova.svg" class="cls-1" d="M719.234,151.441c-0.681-3.368-.922-7.137-3.439-10.657-1.051-1.378-.716-2.9-2.123-5.081l-0.624.419,0.746-.1,0-.007a3.771,3.771,0,0,1,2.039-.313,26.737,26.737,0,0,1,6.946,1.134l0.217-.719-0.276.7c1.788,0.633,3.877,3.905,6.527,5.095a4.386,4.386,0,0,0,1.743.349c1.7-.027,3.079-0.745,4.382-0.723a3.582,3.582,0,0,1,1.585.361l0.323-.678-0.645.385,1.737,2.917,0.319,0.293a2.726,2.726,0,0,0,1.207.247c0.5,0,.94-0.073,1.359-0.07a2.873,2.873,0,0,1,1.689.5l0.409-.633-0.744-.108a63.894,63.894,0,0,0-.875,8.093l0.427,0.714c4.169,2.115,4.527.415,4.78,5.166l0.2,0.5c1.671,1.747,5.347,4.877,5.932,6.346l0.69-.3-0.73-.175a1.628,1.628,0,0,0-.045.39c0.214,1.752,2,2.822,1.783,3.214l0,0.043,0.009,0.381a2.119,2.119,0,0,1,.1.564c0.007,0.325-.063.533-2,0.662l0.025,0.753,0.031-.75a11.174,11.174,0,0,1-6.547-2.056l-0.947.079c-1.723,1.641-.154,1.09-3.145,2l0.2,0.725,0.748,0.056a3.016,3.016,0,0,1,.072-0.534l-0.619-.168V171a5.023,5.023,0,0,0,.619-0.362l-0.619-.168v-0.052h-0.694a2.162,2.162,0,0,0,.694.582v-0.582h-0.694c-0.05.059,0.04,0.183-.256,0.186a1.866,1.866,0,0,1-.694-0.18l-0.924.286a1.564,1.564,0,0,0-.245.331,2.116,2.116,0,0,0-.441-0.073c-1.171.263-1.051,1.068-1.166,2.292l0.127,0.467a3.411,3.411,0,0,1,.9,2.23,12.21,12.21,0,0,1-.153,1.614l0.743,0.106v-0.752h-2.6l-0.71.51c-0.818,3-4.822,3.1-5.374,8.2l0.746,0.063-0.529-.532a3.605,3.605,0,0,1-2.458,1.328,3.917,3.917,0,0,1-2.5-1.344l-0.513.548,0.617-.426a5.9,5.9,0,0,1-.915-3.436c-0.014-3.132,1.506-7.212,2.344-11.21a0.75,0.75,0,1,0-1.469-.308c-0.789,3.855-2.363,7.944-2.374,11.518a7.381,7.381,0,0,0,1.18,4.291l0.1,0.12a5.308,5.308,0,0,0,3.531,1.749,5.044,5.044,0,0,0,3.516-1.765l0.219-.467c0.224-4.009,3.713-3.758,5.3-7.842l-0.71-.243v0.753h2.6l0.742-.646a13.89,13.89,0,0,0,.17-1.827,4.942,4.942,0,0,0-1.16-3.078l-0.62.424,0.749,0.043a6.083,6.083,0,0,1,.126-1.122l-0.457-.136v0.385a0.492,0.492,0,0,0,.457-0.249l-0.457-.136v0.385c0-.034.073,0.055,0.441,0.071a1.832,1.832,0,0,0,1.506-1.023l-0.631-.405-0.294.691a3.31,3.31,0,0,0,1.282.3,1.743,1.743,0,0,0,1.755-1.69,1.259,1.259,0,0,0-.8-0.921c-0.95.635-.649,0.841-0.95,1.562a0.749,0.749,0,0,0,.945.782c2.951-.705,2.7-1.287,3.794-2.371l-0.52-.541-0.425.621a12.7,12.7,0,0,0,7.334,2.318h0.057c1.833,0,3.43-.512,3.454-2.167a3.522,3.522,0,0,0-.156-0.981l-0.721.209,0.73,0.174a1.623,1.623,0,0,0,.046-0.39c-0.215-1.752-2-2.822-1.786-3.214l0-.04-0.041-.474c-0.988-2.167-4.655-5.077-6.215-6.777l-0.547.514,0.751-.011c0.1-5.222-2.218-5-5.634-6.5l-0.321.68,0.748,0.034a62.166,62.166,0,0,1,.861-7.944l-0.334-.742a4.423,4.423,0,0,0-2.5-.748c-0.565,0-1.027.075-1.359,0.073a1.225,1.225,0,0,1-.558-0.1l-0.324.678,0.645-.385-1.737-2.917-0.319-.293a5.049,5.049,0,0,0-2.233-.507c-1.773.025-3.186,0.748-4.382,0.72a2.89,2.89,0,0,1-1.157-.226c-2.033-.8-4.061-4.044-6.561-5.111l-0.057-.021a28.251,28.251,0,0,0-7.382-1.2c-1.605.062-3.282,0.084-3.538,1.818l0.011,0.195,0.123,0.324c1.139,1.623.775,3.119,2.15,5.125,2.236,3.107,2.491,6.552,3.187,10.074A0.75,0.75,0,1,0,719.234,151.441ZM704.771,160.2h29.247a0.753,0.753,0,0,0,0-1.5H704.771a0.753,0.753,0,0,0,0,1.5m23.717-6.138,4.843,5.385-4.764,4.778a0.751,0.751,0,0,0,1.06,1.063L734.9,160l0.027-1.035-5.32-5.916A0.751,0.751,0,1,0,728.488,154.059Z" transform="translate(-704.031 -134.188)"/>
</svg>
