<svg xmlns="http://www.w3.org/2000/svg" width="60.406" height="18.063" viewBox="0 0 60.406 18.063">
  <defs>
    <style>
      .cls-1 {
        fill-rule: evenodd;
      }
    </style>
  </defs>
  <path id="routers.svg" class="cls-1" d="M193.784,231.37v0.754h30.849A13.321,13.321,0,0,1,237.9,245.46a1.729,1.729,0,0,1-1.725,1.732H182.238a1.73,1.73,0,0,1-1.725-1.732,13.321,13.321,0,0,1,13.271-13.336v-1.506a14.806,14.806,0,0,0-14.769,14.842,3.231,3.231,0,0,0,3.223,3.24h53.941a3.233,3.233,0,0,0,3.225-3.24,14.806,14.806,0,0,0-14.771-14.842H193.784v0.752Zm35.514,9.638v0.754a0.173,0.173,0,1,1-.172.173,0.172,0.172,0,0,1,.172-0.173v-1.508a1.681,1.681,0,1,0,1.67,1.681,1.678,1.678,0,0,0-1.67-1.681v0.754Zm-37.265-3.876v0.751h2.856l-0.065.134a12.607,12.607,0,0,1,.987,1.195,6.619,6.619,0,0,1,.375.552l0.057-.025v2.455h0.149v-0.139a0.148,0.148,0,0,0-.149.139h0.149v-0.139H190.53v0.139h0.147a0.145,0.145,0,0,0-.147-0.139v0.139h0.147v-2.455c-0.048-.032,0,0,0.158-0.134a13.317,13.317,0,0,1,.951-1.245c0.168-.193.328-0.363,0.436-0.463l-0.189-.209v0.2l0.189,0.014-0.189-.209v-1.31a5.69,5.69,0,0,0-2.855,3.361v2.455a1.359,1.359,0,0,0,1.352,1.367h5.862a1.361,1.361,0,0,0,1.352-1.367v-2.455a5.69,5.69,0,0,0-2.855-3.361h-2.856v0.754Zm9.218,0v0.751h2.857l-0.066.134a12.3,12.3,0,0,1,.99,1.195c0.154,0.211.289,0.409,0.375,0.552l0.057-.025v2.455h0.149v-0.139a0.145,0.145,0,0,0-.149.139h0.149v-0.139h-5.865v0.139H199.9a0.145,0.145,0,0,0-.149-0.139v0.139H199.9v-2.455c-0.049-.032,0,0,0.156-0.134a13.878,13.878,0,0,1,.952-1.245,6.122,6.122,0,0,1,.438-0.463l-0.192-.209v0.2l0.192,0.014-0.192-.209v-1.31a5.692,5.692,0,0,0-2.854,3.361v2.455a1.361,1.361,0,0,0,1.351,1.367h5.865a1.358,1.358,0,0,0,1.349-1.367v-2.455a5.685,5.685,0,0,0-2.854-3.361h-2.857v0.754Zm9.37,0v0.751h2.857l-0.066.134a12.451,12.451,0,0,1,.99,1.195c0.154,0.211.289,0.409,0.373,0.552l0.059-.025v2.455h0.147v-0.139a0.144,0.144,0,0,0-.147.139h0.147v-0.139h-5.863v0.139h0.149a0.145,0.145,0,0,0-.149-0.139v0.139h0.149v-2.455c-0.049-.032,0,0,0.156-0.134a13.878,13.878,0,0,1,.952-1.245,6.122,6.122,0,0,1,.438-0.463l-0.192-.209v0.2l0.192,0.014-0.192-.209v-1.31a5.692,5.692,0,0,0-2.854,3.361v2.455a1.36,1.36,0,0,0,1.351,1.367h5.863a1.358,1.358,0,0,0,1.351-1.367v-2.455a5.692,5.692,0,0,0-2.854-3.361h-2.857v0.754Z" transform="translate(-179 -230.625)"/>
</svg>
