<svg xmlns="http://www.w3.org/2000/svg" width="25.187" height="20.5" viewBox="0 0 25.187 20.5">
  <defs>
    <style>
      .cls-1 {
        fill-rule: evenodd;
      }
    </style>
  </defs>
  <path id="sfp.svg" class="cls-1" d="M743,228.963v0.751h3.266l0.748-.713,0.09-1.726,2.99-.125,0.717-.717,0.072-1.54h3.381l0.033,1.419,0.714,0.831,3.119,0.1,0.186,1.89,0.73,0.579h2.837a1.658,1.658,0,0,1,1.649,1.658V240.7a1.657,1.657,0,0,1-1.649,1.658H743a1.658,1.658,0,0,1-1.65-1.658v-9.332a1.658,1.658,0,0,1,1.65-1.658v-1.5a3.154,3.154,0,0,0-3.148,3.163V240.7A3.156,3.156,0,0,0,743,243.868h18.883a3.158,3.158,0,0,0,3.15-3.164v-9.332a3.156,3.156,0,0,0-3.15-3.163h-2.242l-0.183-1.866-0.7-.581-2.888-.091-0.028-1.453-0.746-.833h-4.929l-0.751.72-0.072,1.569-2.985.123-0.719.715-0.088,1.7H743v0.754Zm4.572,7.853V242.5a0.751,0.751,0,1,0,1.5,0v-5.684a0.751,0.751,0,1,0-1.5,0m3.211,0V242.5a0.751,0.751,0,1,0,1.5,0v-5.684a0.751,0.751,0,1,0-1.5,0m3.1,0V242.5a0.749,0.749,0,1,0,1.5,0v-5.684a0.749,0.749,0,1,0-1.5,0m3.2,0V242.5a0.75,0.75,0,1,0,1.5,0v-5.684a0.75,0.75,0,1,0-1.5,0" transform="translate(-739.844 -223.375)"/>
</svg>
