<svg xmlns="http://www.w3.org/2000/svg" width="53" height="42" viewBox="0 0 53 42">
  <defs>
    <style>
      .cls-1 {
        fill: #244ea8;
        fill-rule: evenodd;
      }
    </style>
  </defs>
  <path id="subscribe.svg" class="cls-1" d="M323.474,45.624h9.738a2.25,2.25,0,0,1,2.265,2.229V72.3a2.251,2.251,0,0,1-2.265,2.231H287.779a2.252,2.252,0,0,1-2.268-2.231V47.852a2.252,2.252,0,0,1,2.268-2.229h8.845a0.743,0.743,0,1,0,0-1.485h-8.845A3.745,3.745,0,0,0,284,47.852V72.3a3.744,3.744,0,0,0,3.777,3.716h45.433a3.746,3.746,0,0,0,3.776-3.716V47.852a3.745,3.745,0,0,0-3.776-3.714h-9.738A0.743,0.743,0,1,0,323.474,45.624Zm-39.021,2.132,0.007,0.007c0.148,0.025,19.23,16.215,25.79,16.394,6.545-.17,26.156-16.153,26.3-16.176a0.735,0.735,0,0,0,.112-1.044,0.762,0.762,0,0,0-1.063-.11c-0.025.074-20.285,16.012-25.35,15.842-5.046.179-24.789-16.062-24.814-16.04l-0.007-.007a0.765,0.765,0,0,0-1.065.087A0.733,0.733,0,0,0,284.453,47.756Zm1.418,26.418L300.8,59.259a0.734,0.734,0,0,0-.007-1.05,0.764,0.764,0,0,0-1.068.007L284.794,73.13a0.734,0.734,0,0,0,.01,1.05,0.763,0.763,0,0,0,1.067-.007m50.137-.981L321.489,58.172a0.764,0.764,0,0,0-1.068-.027,0.735,0.735,0,0,0-.027,1.05l14.519,15.021a0.763,0.763,0,0,0,1.067.027,0.735,0.735,0,0,0,.028-1.051m-17.59-31.4a8.305,8.305,0,0,1,.259,2.059,8.513,8.513,0,1,1-8.513-8.377,8.581,8.581,0,0,1,3.856.907,0.761,0.761,0,0,0,1.015-.325,0.74,0.74,0,0,0-.33-1,10.144,10.144,0,0,0-4.541-1.066,9.864,9.864,0,1,0,10.023,9.862,9.8,9.8,0,0,0-.3-2.424,0.759,0.759,0,0,0-.918-0.538A0.742,0.742,0,0,0,318.418,41.8ZM305.179,42.88l5.033,4.955a0.773,0.773,0,0,0,.594.215,0.757,0.757,0,0,0,.551-0.3l8.056-10.9a0.737,0.737,0,0,0-.167-1.039,0.762,0.762,0,0,0-1.054.163l-7.536,10.2-4.41-4.339a0.761,0.761,0,0,0-1.067,0A0.732,0.732,0,0,0,305.179,42.88Z" transform="translate(-284 -34)"/>
</svg>
