<svg xmlns="http://www.w3.org/2000/svg" width="67.594" height="32.688" viewBox="0 0 67.594 32.688">
  <defs>
    <style>
      .cls-1 {
        fill-rule: evenodd;
      }
    </style>
  </defs>
  <path id="switches.svg" class="cls-1" d="M294.139,231.37v0.754h60.078a2.256,2.256,0,0,1,2.248,2.26v10.549a2.254,2.254,0,0,1-2.248,2.259H294.139a2.254,2.254,0,0,1-2.248-2.259V234.384a2.256,2.256,0,0,1,2.248-2.26v-1.506a3.757,3.757,0,0,0-3.749,3.766v10.549a3.759,3.759,0,0,0,3.749,3.767h60.078a3.759,3.759,0,0,0,3.749-3.767V234.384a3.757,3.757,0,0,0-3.749-3.766H294.139v0.752Zm38.8,3.84v8.9a0.75,0.75,0,1,0,1.5,0v-8.9a0.75,0.75,0,1,0-1.5,0m2.753,0v8.9a0.751,0.751,0,1,0,1.5,0v-8.9a0.751,0.751,0,1,0-1.5,0m2.755,0v8.9a0.751,0.751,0,1,0,1.5,0v-8.9a0.751,0.751,0,1,0-1.5,0m2.755,0v8.9a0.749,0.749,0,1,0,1.5,0v-8.9a0.749,0.749,0,1,0-1.5,0m7.114,2.753v0.754a2.465,2.465,0,1,1-2.4,2.464,2.439,2.439,0,0,1,2.4-2.464v-1.506a3.972,3.972,0,1,0,3.906,3.97,3.941,3.941,0,0,0-3.906-3.97v0.752Zm4.344-3.391v0.754a0.192,0.192,0,1,1-.156.189,0.178,0.178,0,0,1,.156-0.189V233.82a1.7,1.7,0,1,0,1.654,1.695,1.677,1.677,0,0,0-1.654-1.695v0.752Zm-55.65,3.364v0.751h2.857l-0.068.134a12.451,12.451,0,0,1,.99,1.195c0.156,0.211.289,0.409,0.375,0.552l0.056-.025V243h0.149v-0.141a0.148,0.148,0,0,0-.149.141h0.149v-0.141H295.5V243h0.149a0.146,0.146,0,0,0-.149-0.141V243h0.149v-2.455c-0.047-.032,0,0,0.158-0.134a13.514,13.514,0,0,1,.952-1.245,5.794,5.794,0,0,1,.436-0.463l-0.19-.209v0.2l0.19,0.014-0.19-.209v-1.31a5.694,5.694,0,0,0-2.857,3.361V243a1.363,1.363,0,0,0,1.352,1.367h5.864A1.362,1.362,0,0,0,302.716,243v-2.455a5.7,5.7,0,0,0-2.854-3.361h-2.857v0.754Zm9.218,0v0.751h2.857l-0.065.134a12.309,12.309,0,0,1,.987,1.195,6.619,6.619,0,0,1,.375.552l0.059-.025V243h0.147v-0.141a0.146,0.146,0,0,0-.147.141h0.147v-0.141h-5.862V243h0.147a0.146,0.146,0,0,0-.147-0.141V243h0.147v-2.455c-0.048-.032,0,0,0.158-0.134a13.317,13.317,0,0,1,.951-1.245,5.983,5.983,0,0,1,.436-0.463l-0.19-.209v0.2l0.19,0.014-0.19-.209v-1.31a5.692,5.692,0,0,0-2.854,3.361V243a1.359,1.359,0,0,0,1.352,1.367h5.862A1.358,1.358,0,0,0,311.934,243v-2.455a5.689,5.689,0,0,0-2.854-3.361h-2.857v0.754Zm9.37,0v0.751h2.857l-0.065.134a12.607,12.607,0,0,1,.987,1.195,6.619,6.619,0,0,1,.375.552l0.059-.025V243h0.147v-0.141a0.146,0.146,0,0,0-.147.141h0.147v-0.141h-5.862V243h0.146a0.145,0.145,0,0,0-.146-0.141V243h0.146v-2.455c-0.047-.032,0,0,0.159-0.134a13.317,13.317,0,0,1,.951-1.245,5.983,5.983,0,0,1,.436-0.463l-0.19-.209v0.2l0.19,0.014-0.19-.209v-1.31a5.692,5.692,0,0,0-2.854,3.361V243a1.359,1.359,0,0,0,1.352,1.367h5.862A1.361,1.361,0,0,0,321.3,243v-2.455a5.689,5.689,0,0,0-2.854-3.361h-2.857v0.754Zm9.37,0v0.751h2.857l-0.065.134a12.761,12.761,0,0,1,.987,1.195,6.619,6.619,0,0,1,.375.552l0.057-.025V243h0.149v-0.141a0.149,0.149,0,0,0-.149.141h0.149v-0.141h-5.862V243h0.146a0.145,0.145,0,0,0-.146-0.141V243h0.146v-2.455c-0.047-.032,0,0,0.159-0.134a13.317,13.317,0,0,1,.951-1.245,5.983,5.983,0,0,1,.436-0.463l-0.19-.209v0.2l0.19,0.014-0.19-.209v-1.31a5.692,5.692,0,0,0-2.854,3.361V243a1.359,1.359,0,0,0,1.352,1.367h5.862A1.361,1.361,0,0,0,330.674,243v-2.455a5.689,5.689,0,0,0-2.854-3.361h-2.857v0.754Zm21.961-6.716V216.753a0.75,0.75,0,1,0-1.5,0V231.22a0.75,0.75,0,1,0,1.5,0" transform="translate(-290.375 -216)"/>
</svg>
