<svg xmlns="http://www.w3.org/2000/svg" width="18.875" height="18.812" viewBox="0 0 18.875 18.812">
  <defs>
    <style>
      .cls-1 {
        fill-rule: evenodd;
      }
    </style>
  </defs>
  <path id="tel_black.svg" class="cls-1" d="M61.166,112.507l-0.744.1v0.027l-0.045.082,0,0-2.457,2.434-0.014.016a0.676,0.676,0,0,1-.2.138h0a1.069,1.069,0,0,1-.3.1l0.106,0.741v-0.751l-0.188.014h0l-0.165,0a7.619,7.619,0,0,1-1.017-.111,7.818,7.818,0,0,1-1.736-.538,15.351,15.351,0,0,1-2.439-1.338,18.353,18.353,0,0,1-2.925-2.467l0,0,0,0a19.2,19.2,0,0,1-2.05-2.33,16.046,16.046,0,0,1-1.3-2.042,10.571,10.571,0,0,1-.723-1.661,8.714,8.714,0,0,1-.321-1.264,4.606,4.606,0,0,1-.068-0.671l0-.075v0c0.011-.233.018-0.321,0.02-0.407H43.848l0.742,0.1a1.058,1.058,0,0,1,.1-0.3v0l0,0a0.646,0.646,0,0,1,.14-0.2l0.014-.013L47.3,99.629l0,0,0.056-.036V99.547l-0.025.034,0.025,0.013V99.547l-0.025.034v0a0.483,0.483,0,0,1,.127.14l0.633-.4-0.662.35L49.4,103.4l0,0.009,0.018,0.063,0,0.057v0a0.4,0.4,0,0,1-.108.213l-0.9.9,0,0a1.035,1.035,0,0,0-.244.406v0a1.1,1.1,0,0,0-.066.375v0.07l0.014,0.07a4.017,4.017,0,0,0,.4,1.086l0.667-.346-0.671.336a8.785,8.785,0,0,0,.744,1.178,12.506,12.506,0,0,0,1.386,1.553l0.525-.536-0.536.525a12.944,12.944,0,0,0,1.564,1.392,8.993,8.993,0,0,0,1.175.751h0a3.437,3.437,0,0,0,.857.332l0.228,0.046,0.072,0.015H54.59a1.187,1.187,0,0,0,.364-0.067l-0.007,0a1.023,1.023,0,0,0,.414-0.249l0,0,1.047-1.065L55.877,110l0.5,0.56a0.369,0.369,0,0,1,.273-0.1l0.111,0,0.179,0.108h0.02l3.368,1.985,0.38-.644-0.393.637,0.118,0.115,0.737-.149-0.744.1,0.744-.1,0.735-.147a1.684,1.684,0,0,0-.8-1.1l-0.007,0-3.728-2.2H57.142v0.751l0.387-.645a1.717,1.717,0,0,0-.882-0.217,1.891,1.891,0,0,0-1.268.484l-0.02.016-1.065,1.083,0,0,0.323,0.319-0.147-.438a0.46,0.46,0,0,0-.176.119l0.323,0.319-0.147-.438h0l0,0,0.124,0.362V110.4l-0.124.014,0.124,0.362v0.375l0.147-.735-0.231-.047a2.482,2.482,0,0,1-.466-0.2l0,0,0,0a8.022,8.022,0,0,1-.974-0.626,11.569,11.569,0,0,1-1.374-1.232l-0.007,0,0-.006a11.281,11.281,0,0,1-1.221-1.361l0,0,0,0a7.664,7.664,0,0,1-.617-0.968l0-.007,0,0a2.6,2.6,0,0,1-.26-0.674l-0.737.14h0.448l0.294,0.1,0.009-.1h-0.3l0.294,0.1,0,0.005-0.434-.147,0.319,0.317a0.434,0.434,0,0,0,.115-0.17l-0.434-.147,0.319,0.317,0,0,0.9-.9a1.91,1.91,0,0,0,.515-0.963,1.763,1.763,0,0,0,.038-0.364,1.621,1.621,0,0,0-.21-0.8l-0.653.368,0.662-.35-1.978-3.75-0.018-.025a2,2,0,0,0-.5-0.538,1.457,1.457,0,0,0-.873-0.287,1.566,1.566,0,0,0-1.117.477L43.8,101.01l0.529,0.529-0.5-.556a2.121,2.121,0,0,0-.486.66v0a2.5,2.5,0,0,0-.233.744l-0.007.052V102.5s0,0.115-.018.323l0,0.161a6.236,6.236,0,0,0,.086.906,9.98,9.98,0,0,0,.378,1.49,12.26,12.26,0,0,0,.821,1.9,17.8,17.8,0,0,0,1.417,2.231,20.939,20.939,0,0,0,2.209,2.514l0.527-.536-0.534.529a19.962,19.962,0,0,0,3.172,2.667,16.708,16.708,0,0,0,2.686,1.467,9.205,9.205,0,0,0,2.084.636,9.422,9.422,0,0,0,1.243.129,2.8,2.8,0,0,0,.312-0.014h0l0.034,0h0.052l0.052-.01a2.456,2.456,0,0,0,.746-0.232l0,0a2.111,2.111,0,0,0,.665-0.486l-0.558-.5,0.529,0.533,2.446-2.425,0,0a1.6,1.6,0,0,0,.486-1.142l-0.014-.219,0-.027,0-.025Z" transform="translate(-43.063 -98.094)"/>
</svg>
