<svg xmlns="http://www.w3.org/2000/svg" width="33.843" height="31.375" viewBox="0 0 33.843 31.375">
  <defs>
    <style>
      .cls-1 {
        fill-rule: evenodd;
      }
    </style>
  </defs>
  <path id="voip.svg" class="cls-1" d="M686.468,244.067l-0.743.1,0,0.062a0.3,0.3,0,0,1-.12.24l0,0-3.21,3.1-0.029.03a1.044,1.044,0,0,1-.335.229l0,0a1.589,1.589,0,0,1-.47.145l0.1,0.747v-0.754l-0.215.016-0.244.009a11.173,11.173,0,0,1-1.372-.145,10.8,10.8,0,0,1-2.339-.707,20.361,20.361,0,0,1-3.245-1.735,24.191,24.191,0,0,1-3.881-3.193l-0.006-.007a25.052,25.052,0,0,1-2.717-3.011,21.33,21.33,0,0,1-1.724-2.644,13.691,13.691,0,0,1-.963-2.159,11.352,11.352,0,0,1-.429-1.647,5.85,5.85,0,0,1-.091-0.892l0-.1v0c0.016-.3.025-0.418,0.025-0.513h-0.748l0.741,0.109a1.5,1.5,0,0,1,.147-0.445v0a0.984,0.984,0,0,1,.233-0.323l0.027-.025,3.209-3.127a0.33,0.33,0,0,1,.249-0.116l0.115,0.032a0.9,0.9,0,0,1,.224.239l0.626-.414-0.658.361,2.581,4.772,0.012,0.018,0.047,0.175-0.011.111v0a0.7,0.7,0,0,1-.2.372l-1.182,1.152a1.084,1.084,0,0,0-.269.447l0,0a1.327,1.327,0,0,0-.076.421l0.016,0.145a4.821,4.821,0,0,0,.508,1.338l0.66-.355-0.667.345a11.273,11.273,0,0,0,.958,1.481,16.156,16.156,0,0,0,1.8,1.965l0.516-.548-0.529.536a16.432,16.432,0,0,0,2.025,1.76,11.691,11.691,0,0,0,1.512.943,4.386,4.386,0,0,0,1.06.4l0.3,0.059,0.143,0.014a1.237,1.237,0,0,0,.393-0.073h0a1.09,1.09,0,0,0,.448-0.259l0,0,1.374-1.365-0.526-.536,0.49,0.572a0.747,0.747,0,0,1,.525-0.193,0.623,0.623,0,0,1,.273.039l0.378,0.1h0.022v-0.752l-0.373.654,4.658,2.68,0.373-.654-0.387.645a0.437,0.437,0,0,1,.254.284l0.734-.155-0.743.1,0.743-.1,0.735-.152a1.949,1.949,0,0,0-.952-1.269l-0.013-.007-4.656-2.68-0.373-.1h-0.022v0.754l0.375-.652a2.017,2.017,0,0,0-1.026-.243,2.258,2.258,0,0,0-1.5.559l-0.039.034-1.374,1.365,0,0,0.249,0.257-0.113-.352-0.136.095,0.249,0.257-0.113-.352,0,0,0.079,0.241v-0.243l-0.079,0,0.079,0.241v0.509l0.142-.738-0.3-.059a3.368,3.368,0,0,1-.678-0.277,10.267,10.267,0,0,1-1.313-.823,15.127,15.127,0,0,1-1.835-1.6l-0.011-.011a14.775,14.775,0,0,1-1.627-1.771,9.652,9.652,0,0,1-.827-1.27l0-.011a3.44,3.44,0,0,1-.359-0.918l-0.737.146h0.554l0.192,0.065,0-.065h-0.2l0.192,0.065v0l-0.362-.125,0.26,0.268,0.1-.143-0.362-.125,0.26,0.268,1.18-1.152a2.2,2.2,0,0,0,.621-1.133v0a2.025,2.025,0,0,0,.048-0.427,1.843,1.843,0,0,0-.253-0.931l-0.647.377,0.658-.359-2.581-4.772-0.032-.052a2.414,2.414,0,0,0-.6-0.634,1.687,1.687,0,0,0-1-.32,1.845,1.845,0,0,0-1.293.543l-3.209,3.125,0.522,0.541-0.492-.566a2.5,2.5,0,0,0-.588.781v0a2.987,2.987,0,0,0-.289.9l-0.007.109s-0.007.156-.023,0.427v0l-0.007.2a7.723,7.723,0,0,0,.111,1.135,12.548,12.548,0,0,0,.488,1.878,15.179,15.179,0,0,0,1.065,2.4,22.67,22.67,0,0,0,1.846,2.834,26.549,26.549,0,0,0,2.88,3.2l0.517-.546-0.524.539a25.618,25.618,0,0,0,4.126,3.388,22.005,22.005,0,0,0,3.488,1.862,12.147,12.147,0,0,0,2.678.8,11.73,11.73,0,0,0,1.593.161c0.145,0,.269,0,0.389-0.016l0.07-.007,0.1-.007a3.125,3.125,0,0,0,.907-0.277l0,0a2.558,2.558,0,0,0,.8-0.57l-0.549-.513,0.52,0.543,3.209-3.1,0,0a1.833,1.833,0,0,0,.577-1.321,2.043,2.043,0,0,0-.018-0.261l-0.009-.053Zm-5.632-22.949v10.958a0.75,0.75,0,1,0,1.5,0V221.118a0.75,0.75,0,1,0-1.5,0m3.37,3.044v4.869a0.75,0.75,0,1,0,1.5,0v-4.869a0.75,0.75,0,1,0-1.5,0m7.163-3.044v10.958a0.75,0.75,0,1,0,1.5,0V221.118a0.75,0.75,0,1,0-1.5,0m3.921,3.044v4.869a0.749,0.749,0,1,0,1.5,0v-4.869a0.749,0.749,0,1,0-1.5,0m-7.575-5.276v15.827a0.749,0.749,0,1,0,1.5,0V218.886a0.749,0.749,0,1,0-1.5,0" transform="translate(-662.938 -218.125)"/>
</svg>
