<svg xmlns="http://www.w3.org/2000/svg" width="51.156" height="46.781" viewBox="0 0 51.156 46.781">
  <defs>
    <style>
      .cls-1 {
        fill-rule: evenodd;
      }
    </style>
  </defs>
  <path id="wallet.svg" class="cls-1" d="M819.677,154.864l0-.009c0-.016,1.149-5.4,4.262-5.2H830.5a0.752,0.752,0,0,0,0-1.5h-6.557c-4.845.2-5.677,6.451-5.74,6.444v0l0,0.012A0.75,0.75,0,1,0,819.677,154.864Zm11.673-2.083V142.015a2.256,2.256,0,0,1,2.249-2.255h31.65a2.257,2.257,0,0,1,2.252,2.255V159.22a2.258,2.258,0,0,1-2.252,2.258h-2.835a0.751,0.751,0,0,0,0,1.5h2.835A3.755,3.755,0,0,0,869,159.22V142.015a3.756,3.756,0,0,0-3.751-3.76H833.6a3.758,3.758,0,0,0-3.75,3.76v10.766A0.751,0.751,0,1,0,831.35,152.781Zm4.937-6.87v0.753h6.969v2.506h-6.22v-3.259h-0.749v0h-0.75v4.01l0.75,0.752h7.719l0.751-.752v-4.01l-0.751-.752h-7.719l-0.75.752h0.75Zm-14.69,7.144v0.75h38.161a2.258,2.258,0,0,1,2.251,2.258v25.222a2.257,2.257,0,0,1-2.251,2.255H821.6a2.257,2.257,0,0,1-2.25-2.255V156.063a2.258,2.258,0,0,1,2.25-2.258v-1.5a3.753,3.753,0,0,0-3.749,3.76v25.222a3.756,3.756,0,0,0,3.749,3.76h38.161a3.755,3.755,0,0,0,3.75-3.76V156.063a3.752,3.752,0,0,0-3.75-3.76H821.6v0.752ZM862.74,171.5H846.267a2.258,2.258,0,0,1-2.25-2.255v-0.161a2.256,2.256,0,0,1,2.25-2.255H862.74a0.753,0.753,0,0,0,0-1.5H846.267a3.754,3.754,0,0,0-3.748,3.76v0.161a3.754,3.754,0,0,0,3.748,3.76H862.74A0.753,0.753,0,0,0,862.74,171.5Zm-14.452-3.785a1.364,1.364,0,1,1-1.374,1.365A1.369,1.369,0,0,1,848.288,167.717Z" transform="translate(-817.844 -138.25)"/>
</svg>
