<svg xmlns="http://www.w3.org/2000/svg" width="35.5" height="47.625" viewBox="0 0 35.5 47.625">
  <defs>
    <style>
      .cls-1 {
        fill-rule: evenodd;
      }
    </style>
  </defs>
  <path id="warranty.svg" class="cls-1" d="M498.749,139.769v0.752c7.831-.081,10.806-6.271,13.89-6.015,3.059-.27,5.79,5.945,14.113,6.015,0.033-.063.013,0.021,0.174,0.15,0.823,0.376,2.193,1.532,2.077,2.108V166.84h0.751l-0.663-.356c-0.015.043-7,12.758-16.133,12.638-9.993.1-16.507-12.615-16.54-12.62l-0.67.338H496.5V142.779a2.426,2.426,0,0,1,1.191-1.469,11,11,0,0,1,.966-0.607l0.341-.191,0.134-.077a3.21,3.21,0,0,0,.377-0.662,0.83,0.83,0,0,0-.759-0.754,0.751,0.751,0,0,0,0,1.5v-0.748h-0.742a0.819,0.819,0,0,0,.742.748v-0.748h-0.043l-0.387-.6a3.673,3.673,0,0,1-.312.6h0.7l-0.387-.6c-0.176.231-3.143,1.269-3.319,3.608V166.84l0.079,0.34c0.063,0.025,6.577,13.343,17.879,13.445,10.5-.12,17.381-13.409,17.456-13.429l0.088-.356V142.779c-0.359-2.527-2.966-3.527-3.75-3.76-7.558.07-9.422-5.748-14.113-6.018-4.666.258-6.873,6.1-13.89,6.018a0.751,0.751,0,0,0,0,1.5v-0.752Zm7.472,17.577,5,5.013a0.749,0.749,0,0,0,1.138-.09l8-11.027a0.755,0.755,0,0,0-.165-1.052,0.748,0.748,0,0,0-1.047.166l-7.486,10.317-4.379-4.39A0.751,0.751,0,1,0,506.221,157.346Z" transform="translate(-495 -133)"/>
</svg>
