<svg xmlns="http://www.w3.org/2000/svg" width="62.5" height="32.688" viewBox="0 0 62.5 32.688">
  <defs>
    <style>
      .cls-1 {
        fill-rule: evenodd;
      }
    </style>
  </defs>
  <path id="wireless.svg" class="cls-1" d="M406.671,236.205v0.754h51.3a2.259,2.259,0,0,1,2.249,2.26v5.714a2.256,2.256,0,0,1-2.249,2.259h-51.3a2.254,2.254,0,0,1-2.248-2.259v-5.714a2.256,2.256,0,0,1,2.248-2.26v-1.508a3.76,3.76,0,0,0-3.749,3.768v5.714a3.759,3.759,0,0,0,3.749,3.767h51.3a3.757,3.757,0,0,0,3.747-3.767v-5.714a3.758,3.758,0,0,0-3.747-3.768h-51.3v0.754Zm20.754,5.809h8.855a0.753,0.753,0,0,0,0-1.505h-8.855a0.753,0.753,0,0,0,0,1.505m27.4,0.595a0.943,0.943,0,1,1-.922.943A0.934,0.934,0,0,1,454.83,242.609Zm-4,0a0.943,0.943,0,1,1-.922.943A0.934,0.934,0,0,1,450.832,242.609Zm-4,0a0.943,0.943,0,1,1-.92.943A0.933,0.933,0,0,1,446.832,242.609Zm-35.324-6.567V216.753a0.751,0.751,0,1,0-1.5,0v19.289A0.751,0.751,0,1,0,411.508,236.042Zm4.985-14.815a3.784,3.784,0,0,1-.217,5.412,0.754,0.754,0,0,0-.067,1.063,0.744,0.744,0,0,0,1.057.068,5.291,5.291,0,0,0,.308-7.587,0.747,0.747,0,0,0-1.06-.021A0.755,0.755,0,0,0,416.493,221.227Zm1.026-3.411a7.163,7.163,0,0,1,.62,11.585,0.754,0.754,0,0,0-.122,1.058,0.746,0.746,0,0,0,1.053.123,8.671,8.671,0,0,0-.753-14.042,0.749,0.749,0,0,0-1.035.238A0.757,0.757,0,0,0,417.519,217.816Zm-13.578,2.367a5.291,5.291,0,0,0,.308,7.587,0.744,0.744,0,0,0,1.057-.068,0.757,0.757,0,0,0-.065-1.063,3.78,3.78,0,0,1-.22-5.412A0.751,0.751,0,1,0,403.941,220.183ZM403.2,216.54a8.673,8.673,0,0,0-.755,14.042,0.746,0.746,0,0,0,1.053-.123,0.754,0.754,0,0,0-.122-1.058A7.161,7.161,0,0,1,404,217.816a0.756,0.756,0,0,0,.235-1.038A0.747,0.747,0,0,0,403.2,216.54Z" transform="translate(-399.219 -216)"/>
</svg>
