<svg xmlns="http://www.w3.org/2000/svg" xmlns:xlink="http://www.w3.org/1999/xlink" width="36" height="32" viewBox="0 0 36 32"><defs><path id="cwepa" d="M930.31 658.764c.049.36-.064.671-.338.937l-3.209 3.088c-.145.156-.334.29-.567.398-.233.11-.462.18-.688.21a2.75 2.75 0 0 0-.144.012c-.08.008-.185.012-.314.012-.306 0-.8-.05-1.484-.152-.684-.101-1.52-.351-2.51-.75-.989-.397-2.11-.994-3.366-1.789-1.254-.795-2.59-1.887-4.005-3.275-1.126-1.077-2.06-2.107-2.8-3.09-.739-.983-1.334-1.891-1.785-2.726-.45-.834-.788-1.59-1.013-2.27a11.74 11.74 0 0 1-.459-1.754c-.08-.492-.112-.878-.096-1.158.016-.281.024-.438.024-.469.032-.218.105-.44.217-.667.113-.226.25-.41.41-.55l3.21-3.111c.225-.219.482-.328.772-.328a.92.92 0 0 1 .555.175c.16.117.297.262.41.434l2.582 4.75c.145.249.185.522.12.818-.064.297-.2.546-.41.75l-1.182 1.146a.39.39 0 0 0-.084.151.567.567 0 0 0-.037.177c.065.327.21.702.435 1.122.193.375.49.831.892 1.369.403.538.974 1.158 1.714 1.86.724.718 1.367 1.276 1.93 1.674.563.398 1.034.69 1.412.877.378.188.667.3.868.339l.302.058c.032 0 .084-.01.157-.035a.404.404 0 0 0 .157-.081l1.375-1.358c.29-.25.627-.374 1.013-.374.274 0 .491.047.652.14h.024l4.657 2.668c.338.203.539.46.603.772z"/><path id="cwepb" d="M925.426 635.92v10.907"/><path id="cwepc" d="M928.672 638.95v4.847"/><path id="cwepd" d="M936.378 635.92v10.907"/><path id="cwepe" d="M940.424 638.95v4.847"/><path id="cwepf" d="M932.91 633.697v15.755"/></defs><g><g transform="translate(-906 -633)"><g><use fill="#fff" fill-opacity="0" stroke="#000" stroke-linecap="round" stroke-linejoin="round" stroke-miterlimit="50" stroke-width="1.5" xlink:href="#cwepa"/></g><g><use fill="#fff" fill-opacity="0" stroke="#000" stroke-linecap="round" stroke-linejoin="round" stroke-miterlimit="50" stroke-width="1.5" xlink:href="#cwepb"/></g><g><use fill="#fff" fill-opacity="0" stroke="#000" stroke-linecap="round" stroke-linejoin="round" stroke-miterlimit="50" stroke-width="1.5" xlink:href="#cwepc"/></g><g><use fill="#fff" fill-opacity="0" stroke="#000" stroke-linecap="round" stroke-linejoin="round" stroke-miterlimit="50" stroke-width="1.5" xlink:href="#cwepd"/></g><g><use fill="#fff" fill-opacity="0" stroke="#000" stroke-linecap="round" stroke-linejoin="round" stroke-miterlimit="50" stroke-width="1.5" xlink:href="#cwepe"/></g><g><use fill="#fff" fill-opacity="0" stroke="#000" stroke-linecap="round" stroke-linejoin="round" stroke-miterlimit="50" stroke-width="1.5" xlink:href="#cwepf"/></g></g></g></svg>